<?xml version="1.0" encoding="UTF-8" standalone="no"?>
<!-- Created with Inkscape (http://www.inkscape.org/) -->
<svg xmlns:svg="http://www.w3.org/2000/svg" xmlns="http://www.w3.org/2000/svg" version="1.0" width="201.77" height="23.610607" viewBox="-0.991 -0.753 792 90" id="svg2" xml:space="preserve">
<defs id="defs4">
</defs>








<g transform="matrix(0.996855, 0, 0, 0.996855, 1.89711, -0.0395044)" id="g2175"><path d="M 699.416,78.927 C 699.416,84.461 694.932,88.948 689.4,88.948 C 683.868,88.948 679.333,84.475 679.384,78.942 L 679.376,10.023 C 679.376,4.489 683.86,0.003 689.391,0.003 C 694.923,0.003 699.458,4.475 699.407,10.008 L 699.416,78.927 z " style="fill: rgb(0, 81, 153);" id="path6"/><path d="M 730.751,60.223 C 730.751,65.385 734.891,69.575 740.105,69.575 L 780.901,69.575 C 786.063,69.575 790.247,73.76 790.247,78.923 C 790.247,84.085 786.021,88.27 780.901,88.27 L 736.386,88.27 C 722.206,88.217 710.713,76.775 710.713,62.595 L 710.717,10.021 C 710.717,4.487 715.202,0.001 720.736,0.001 C 726.27,0.001 730.807,4.473 730.756,10.006 L 730.751,60.223 z " style="fill: rgb(0, 81, 153);" id="path8"/><path d="M 593.626,0.676 C 579.446,0.728 567.952,12.171 567.952,26.351 L 567.971,28.687 L 567.957,62.594 C 567.957,76.774 579.451,88.216 593.632,88.269 L 642.591,88.269 C 656.771,88.216 668.265,76.774 668.265,62.594 L 668.262,2.592 C 668.262,1.533 667.442,0.676 666.341,0.676 L 593.626,0.676 L 593.626,0.676 z M 597.31,19.373 C 592.095,19.373 587.955,23.561 587.955,28.724 L 587.955,60.224 C 587.955,65.386 592.096,69.576 597.31,69.576 L 638.873,69.576 C 644.088,69.576 648.228,65.387 648.228,60.224 L 648.228,21.286 C 648.228,20.227 647.408,19.37 646.307,19.37 L 597.31,19.373 z " style="fill: rgb(0, 81, 153); fill-rule: evenodd;" id="path10"/><path d="M 20.041,0.68 L 1.922,0.676 L 74.485,0.676 C 88.665,0.676 100.108,12.17 100.16,26.35 L 100.16,78.923 C 100.16,84.456 95.674,88.942 90.141,88.942 C 84.607,88.942 80.069,84.47 80.121,78.937 L 80.117,28.708 C 80.065,23.546 75.933,19.364 70.771,19.364 L 21.953,19.369 C 20.894,19.369 19.997,20.231 20.04,21.29 L 20.04,78.928 C 20.04,84.461 15.554,88.947 10.021,88.947 C 4.487,88.947 -0.051,84.476 0.001,78.942 L 0.001,2.592 C -0.04,1.534 0.859,0.676 1.918,0.676 L 20.041,0.68 z " style="fill: rgb(0, 81, 153); fill-rule: evenodd;" id="path12"/><path d="M 130.326,55.061 L 130.326,60.22 C 130.326,65.383 134.467,69.573 139.681,69.573 L 200.989,69.573 C 206.152,69.573 210.335,73.758 210.335,78.92 C 210.335,84.082 206.109,88.267 200.989,88.267 L 135.963,88.267 C 121.783,88.215 110.289,76.773 110.289,62.592 L 110.289,26.351 C 110.289,12.171 121.783,0.728 135.963,0.676 L 200.989,0.676 C 206.11,0.676 210.335,4.861 210.335,10.023 C 210.335,15.185 206.151,19.37 200.989,19.37 L 139.681,19.37 C 134.467,19.37 130.326,23.545 130.326,28.707 L 130.323,33.88 C 130.323,34.939 131.143,35.797 132.243,35.797 L 184.351,35.793 C 189.1,35.793 193.024,39.676 193.024,44.466 C 193.024,49.256 189.141,53.139 184.351,53.139 L 132.246,53.139 C 131.147,53.138 130.326,54.002 130.326,55.061 z " style="fill: rgb(0, 81, 153);" id="path14"/><path d="M 364.461,78.94 C 364.409,84.474 368.946,88.945 374.48,88.945 C 380.014,88.945 384.5,84.459 384.5,78.926 L 384.498,21.288 C 384.498,20.187 385.355,19.367 386.415,19.367 L 418.039,19.369 C 423.202,19.369 427.385,15.184 427.385,10.022 C 427.385,4.859 423.16,0.675 418.039,0.675 L 331.102,0.675 C 325.94,0.675 321.756,4.86 321.756,10.022 C 321.756,15.184 325.982,19.369 331.102,19.369 L 362.543,19.367 C 363.602,19.367 364.46,20.187 364.46,21.288 L 364.461,78.94 z " style="fill: rgb(0, 81, 153);" id="path16"/><path d="M 296.97,64.91 C 297.852,65.244 298.554,66.129 298.554,67.169 C 298.554,68.495 297.466,69.57 296.139,69.57 L 229.161,69.572 C 223.999,69.572 219.815,73.758 219.815,78.92 C 219.815,84.082 224.04,88.267 229.161,88.267 L 297.18,88.267 C 308.681,88.267 318.102,78.894 318.102,67.341 C 318.102,58.327 312.399,50.644 304.407,47.702 L 237.38,24.038 C 236.443,23.711 235.771,22.819 235.771,21.77 C 235.771,20.443 236.792,19.371 238.171,19.371 L 305.052,19.371 C 310.215,19.371 314.398,15.186 314.398,10.024 C 314.398,4.861 310.173,0.677 305.052,0.677 L 237.027,0.677 C 225.439,0.697 216.152,10.052 216.152,21.593 C 216.152,30.325 221.502,37.807 229.102,40.941 L 296.97,64.91 z " style="fill: rgb(0, 81, 153); fill-rule: evenodd;" id="path18"/><path d="M 450.395,55.061 L 450.395,60.22 C 450.395,65.383 454.536,69.573 459.749,69.573 L 521.058,69.573 C 526.22,69.573 530.404,73.758 530.404,78.92 C 530.404,84.082 526.178,88.267 521.058,88.267 L 456.032,88.267 C 441.851,88.215 430.358,76.773 430.358,62.592 L 430.358,26.351 C 430.358,12.171 441.851,0.728 456.032,0.676 L 521.058,0.676 C 526.178,0.676 530.404,4.861 530.404,10.023 C 530.404,15.185 526.22,19.37 521.058,19.37 L 459.75,19.37 C 454.536,19.37 450.396,23.545 450.396,28.707 L 450.392,33.88 C 450.392,34.939 451.212,35.797 452.313,35.797 L 504.421,35.793 C 509.17,35.793 513.094,39.676 513.094,44.466 C 513.094,49.256 509.211,53.139 504.421,53.139 L 452.317,53.139 C 451.215,53.138 450.395,54.002 450.395,55.061 z " style="fill: rgb(0, 81, 153);" id="path20"/></g></svg>